<svg width="1175" height="976" fill="none" xmlns="http://www.w3.org/2000/svg">
    <path fill-rule="evenodd" clip-rule="evenodd" d="M903.034 248.759C820.25 105.566 665.447 9.152 488.262 9.152 223.991 9.152 9.51 223.633 9.51 487.904S223.99 966.656 488.262 966.656c175.664 0 329.328-94.766 412.625-235.93L480.236 489.34l422.798-240.581z" fill="#F4AF3D"/>
    <path fill-rule="evenodd" clip-rule="evenodd" d="M1162.69 489.907c0 98.801-80.1 178.894-178.899 178.894-98.8 0-178.894-80.093-178.894-178.894 0-98.8 80.094-178.894 178.894-178.894 98.799 0 178.899 80.094 178.899 178.894z" fill="#40B6E0" fill-opacity=".6"/>
    <path fill-rule="evenodd" clip-rule="evenodd" d="M1034.9 522.684c-12.01 11.73-24.84 17.774-48.554 18.336-26.553.562-53.668-18.416-53.668-51.102 0-32.917 24.815-51.123 53.668-51.123 21.684 0 37.014 4.721 46.004 14.165l15.75-18.338c-17.56-14.479-31.39-21.373-61.8-21.373-44.928 0-79.173 34.705-79.173 76.669 0 42.985 34.859 76.668 76.72 76.668 32.983 0 51.653-10.401 66.803-26.041l-15.75-17.861z" fill="#231F20" fill-opacity=".7"/>
    <path fill-rule="evenodd" clip-rule="evenodd" d="M668.222 201.732c0 35.13-9.528 62.017-28.584 80.659-19.057 18.559-46.523 27.838-82.398 27.838h-58.91V97.336h65.248c33.058 0 58.785 9.156 77.178 27.466 18.311 18.394 27.466 44.037 27.466 76.93zm-26.223.87c0-27.756-6.96-48.676-20.879-62.762-13.92-14.085-34.633-21.127-62.141-21.127h-35.917v170.14h30.076c29.579 0 51.784-7.25 66.615-21.749 14.831-14.582 22.246-36.083 22.246-64.502z" fill="#5F4516"/>
</svg>